<?xml version="1.0" encoding="UTF-8" standalone="no"?>
<!DOCTYPE svg PUBLIC "-//W3C//DTD SVG 1.1//EN"
 "http://www.w3.org/Graphics/SVG/1.1/DTD/svg11.dtd">
<!-- Generated by graphviz version 2.40.1 (20161225.0304)
 -->
<!-- Title: %3 Pages: 1 -->
<svg width="731pt" height="560pt"
 viewBox="0.00 0.00 731.00 560.00" xmlns="http://www.w3.org/2000/svg" xmlns:xlink="http://www.w3.org/1999/xlink">
<g id="graph0" class="graph" transform="scale(1 1) rotate(0) translate(4 556)">
<title>%3</title>
<polygon fill="#ffffff" stroke="transparent" points="-4,4 -4,-556 727,-556 727,4 -4,4"/>
<g id="clust1" class="cluster">
<title>cluster_enterprise</title>
<polygon fill="none" stroke="#000000" points="335,-287 335,-409 493,-409 493,-287 335,-287"/>
</g>
<!-- 9 -->
<g id="9" class="node">
<title>9</title>
<polygon fill="none" stroke="#000000" points="468,-384 360,-384 360,-312 468,-312 468,-384"/>
<text text-anchor="middle" x="414" y="-347" font-family="Times,serif" font-size="5.00" fill="#000000">9: Plataforma de blog</text>
</g>
<!-- 5 -->
<g id="5" class="node">
<title>5</title>
<polygon fill="none" stroke="#000000" points="108,-240 0,-240 0,-168 108,-168 108,-240"/>
<text text-anchor="middle" x="54" y="-203" font-family="Times,serif" font-size="5.00" fill="#000000">5: Google Account Api</text>
</g>
<!-- 9&#45;&gt;5 -->
<g id="33" class="edge">
<title>9&#45;&gt;5</title>
<path fill="none" stroke="#000000" d="M359.7146,-326.2858C294.8048,-300.3219 186.3315,-256.9326 117.5682,-229.4273"/>
<polygon fill="#000000" stroke="#000000" points="118.7223,-226.1193 108.1376,-225.655 116.1225,-232.6187 118.7223,-226.1193"/>
</g>
<!-- 6 -->
<g id="6" class="node">
<title>6</title>
<polygon fill="none" stroke="#000000" points="288,-240 180,-240 180,-168 288,-168 288,-240"/>
<text text-anchor="middle" x="234" y="-203" font-family="Times,serif" font-size="5.00" fill="#000000">6: Facebook Account Api</text>
</g>
<!-- 9&#45;&gt;6 -->
<g id="36" class="edge">
<title>9&#45;&gt;6</title>
<path fill="none" stroke="#000000" d="M368.5784,-311.6627C343.7555,-291.8044 312.8797,-267.1038 286.9658,-246.3726"/>
<polygon fill="#000000" stroke="#000000" points="289.0901,-243.5899 279.095,-240.076 284.7172,-249.056 289.0901,-243.5899"/>
</g>
<!-- 7 -->
<g id="7" class="node">
<title>7</title>
<polygon fill="none" stroke="#000000" points="468,-240 360,-240 360,-168 468,-168 468,-240"/>
<text text-anchor="middle" x="414" y="-203" font-family="Times,serif" font-size="5.00" fill="#000000">7: Linkedin Account Api</text>
</g>
<!-- 9&#45;&gt;7 -->
<g id="39" class="edge">
<title>9&#45;&gt;7</title>
<path fill="none" stroke="#000000" d="M414,-311.6627C414,-293.0027 414,-270.0673 414,-250.1671"/>
<polygon fill="#000000" stroke="#000000" points="417.5001,-250.0759 414,-240.076 410.5001,-250.076 417.5001,-250.0759"/>
</g>
<!-- 8 -->
<g id="8" class="node">
<title>8</title>
<polygon fill="none" stroke="#000000" points="648,-240 540,-240 540,-168 648,-168 648,-240"/>
<text text-anchor="middle" x="594" y="-203" font-family="Times,serif" font-size="5.00" fill="#000000">8: Email Service</text>
</g>
<!-- 9&#45;&gt;8 -->
<g id="41" class="edge">
<title>9&#45;&gt;8</title>
<path fill="none" stroke="#000000" d="M459.4216,-311.6627C484.2445,-291.8044 515.1203,-267.1038 541.0342,-246.3726"/>
<polygon fill="#000000" stroke="#000000" points="543.2828,-249.056 548.905,-240.076 538.9099,-243.5899 543.2828,-249.056"/>
</g>
<!-- 1 -->
<g id="1" class="node">
<title>1</title>
<polygon fill="none" stroke="#000000" points="294,-552 198,-552 198,-456 294,-456 294,-552"/>
<text text-anchor="middle" x="246" y="-503" font-family="Times,serif" font-size="5.00" fill="#000000">1: Usuário Não Autenticado</text>
</g>
<!-- 1&#45;&gt;9 -->
<g id="24" class="edge">
<title>1&#45;&gt;9</title>
<path fill="none" stroke="#000000" d="M294.1421,-459.2967C317.2269,-437.8607 344.7599,-412.2944 367.6124,-391.0742"/>
<polygon fill="#000000" stroke="#000000" points="370.2234,-393.426 375.1697,-384.0567 365.4602,-388.2964 370.2234,-393.426"/>
</g>
<!-- 2 -->
<g id="2" class="node">
<title>2</title>
<polygon fill="none" stroke="#000000" points="723,-96 627,-96 627,0 723,0 723,-96"/>
<text text-anchor="middle" x="675" y="-47" font-family="Times,serif" font-size="5.00" fill="#000000">2: Usuário Autenticado</text>
</g>
<!-- 2&#45;&gt;9 -->
<g id="26" class="edge">
<title>2&#45;&gt;9</title>
<path fill="none" stroke="#000000" d="M678.6088,-96.1172C681.1127,-129.5021 684,-168 684,-168 684,-168 684,-240 684,-240 684,-240 557.6401,-290.544 477.8072,-322.4771"/>
<polygon fill="#000000" stroke="#000000" points="476.2986,-319.3109 468.3137,-326.2745 478.8984,-325.8102 476.2986,-319.3109"/>
</g>
<!-- 3 -->
<g id="3" class="node">
<title>3</title>
<polygon fill="none" stroke="#000000" points="462,-552 366,-552 366,-456 462,-456 462,-552"/>
<text text-anchor="middle" x="414" y="-503" font-family="Times,serif" font-size="5.00" fill="#000000">3: Administrador</text>
</g>
<!-- 3&#45;&gt;9 -->
<g id="28" class="edge">
<title>3&#45;&gt;9</title>
<path fill="none" stroke="#000000" d="M414,-455.9219C414,-436.3434 414,-413.8002 414,-394.3971"/>
<polygon fill="#000000" stroke="#000000" points="417.5001,-394.2752 414,-384.2753 410.5001,-394.2753 417.5001,-394.2752"/>
</g>
<!-- 4 -->
<g id="4" class="node">
<title>4</title>
<polygon fill="none" stroke="#000000" points="642,-540 534,-540 534,-468 642,-468 642,-540"/>
<text text-anchor="middle" x="588" y="-503" font-family="Times,serif" font-size="5.00" fill="#000000">4: Agendador de processamento de rotina</text>
</g>
<!-- 4&#45;&gt;9 -->
<g id="30" class="edge">
<title>4&#45;&gt;9</title>
<path fill="none" stroke="#000000" d="M547.6436,-467.8184C522.1503,-444.9624 489.0709,-415.3049 462.201,-391.2147"/>
<polygon fill="#000000" stroke="#000000" points="464.2207,-388.3248 454.4386,-384.2553 459.5479,-393.5368 464.2207,-388.3248"/>
</g>
<!-- 8&#45;&gt;2 -->
<g id="42" class="edge">
<title>8&#45;&gt;2</title>
<path fill="none" stroke="#000000" d="M612.7866,-167.8184C622.435,-149.2363 634.4176,-126.1587 645.2833,-105.2321"/>
<polygon fill="#000000" stroke="#000000" points="648.5206,-106.5925 650.0226,-96.1047 642.3081,-103.3668 648.5206,-106.5925"/>
</g>
</g>
</svg>
