<?xml version="1.0" encoding="UTF-8" standalone="no"?>
<!DOCTYPE svg PUBLIC "-//W3C//DTD SVG 1.1//EN"
 "http://www.w3.org/Graphics/SVG/1.1/DTD/svg11.dtd">
<!-- Generated by graphviz version 2.40.1 (20161225.0304)
 -->
<!-- Title: %3 Pages: 1 -->
<svg width="116pt" height="392pt"
 viewBox="0.00 0.00 116.00 392.00" xmlns="http://www.w3.org/2000/svg" xmlns:xlink="http://www.w3.org/1999/xlink">
<g id="graph0" class="graph" transform="scale(1 1) rotate(0) translate(4 388)">
<title>%3</title>
<polygon fill="#ffffff" stroke="transparent" points="-4,4 -4,-388 112,-388 112,4 -4,4"/>
<!-- 1 -->
<g id="1" class="node">
<title>1</title>
<polygon fill="none" stroke="#000000" points="102,-384 6,-384 6,-288 102,-288 102,-384"/>
<text text-anchor="middle" x="54" y="-335" font-family="Times,serif" font-size="5.00" fill="#000000">1: User</text>
</g>
<!-- 2 -->
<g id="2" class="node">
<title>2</title>
<polygon fill="none" stroke="#000000" points="108,-216 0,-216 0,-144 108,-144 108,-216"/>
<text text-anchor="middle" x="54" y="-179" font-family="Times,serif" font-size="5.00" fill="#000000">2: Plataforma de blog</text>
</g>
<!-- 1&#45;&gt;2 -->
<g id="4" class="edge">
<title>1&#45;&gt;2</title>
<path fill="none" stroke="#000000" d="M54,-287.9219C54,-268.3434 54,-245.8002 54,-226.3971"/>
<polygon fill="#000000" stroke="#000000" points="57.5001,-226.2752 54,-216.2753 50.5001,-226.2753 57.5001,-226.2752"/>
</g>
<!-- 3 -->
<g id="3" class="node">
<title>3</title>
<polygon fill="none" stroke="#000000" points="108,-72 0,-72 0,0 108,0 108,-72"/>
<text text-anchor="middle" x="54" y="-35" font-family="Times,serif" font-size="5.00" fill="#000000">3: Google Account Api</text>
</g>
<!-- 2&#45;&gt;3 -->
<g id="5" class="edge">
<title>2&#45;&gt;3</title>
<path fill="none" stroke="#000000" d="M54,-143.6627C54,-125.0027 54,-102.0673 54,-82.1671"/>
<polygon fill="#000000" stroke="#000000" points="57.5001,-82.0759 54,-72.076 50.5001,-82.076 57.5001,-82.0759"/>
</g>
</g>
</svg>
